<svg xmlns="http://www.w3.org/2000/svg" xmlns:xlink="http://www.w3.org/1999/xlink" width="1000" zoomAndPan="magnify" viewBox="0 0 750 749.999995" height="1000" preserveAspectRatio="xMidYMid meet" version="1.0"><defs><g/></defs><g fill="#000000" fill-opacity="1"><g transform="translate(245.89732, 527.999994)"><g><path d="M 173.578125 -84.15625 C 173.578125 -96.164062 170.242188 -105.722656 163.578125 -112.828125 C 156.921875 -119.929688 145.609375 -126.484375 129.640625 -132.484375 C 113.671875 -138.492188 99.898438 -144.460938 88.328125 -150.390625 C 76.753906 -156.328125 66.828125 -163.140625 58.546875 -170.828125 C 50.273438 -178.523438 43.832031 -187.570312 39.21875 -197.96875 C 34.601562 -208.375 32.296875 -220.753906 32.296875 -235.109375 C 32.296875 -259.859375 40.207031 -280.144531 56.03125 -295.96875 C 71.851562 -311.789062 92.875 -321.019531 119.09375 -323.65625 L 119.09375 -370.671875 L 154.25 -370.671875 L 154.25 -323 C 180.175781 -319.332031 200.460938 -308.523438 215.109375 -290.578125 C 229.753906 -272.640625 237.078125 -249.390625 237.078125 -220.828125 L 173.578125 -220.828125 C 173.578125 -238.398438 169.953125 -251.546875 162.703125 -260.265625 C 155.453125 -268.984375 145.75 -273.34375 133.59375 -273.34375 C 121.582031 -273.34375 112.28125 -269.9375 105.6875 -263.125 C 99.09375 -256.3125 95.796875 -246.898438 95.796875 -234.890625 C 95.796875 -223.753906 99.019531 -214.816406 105.46875 -208.078125 C 111.914062 -201.335938 123.890625 -194.453125 141.390625 -187.421875 C 158.898438 -180.390625 173.289062 -173.757812 184.5625 -167.53125 C 195.84375 -161.3125 205.363281 -154.28125 213.125 -146.4375 C 220.894531 -138.601562 226.828125 -129.671875 230.921875 -119.640625 C 235.023438 -109.609375 237.078125 -97.925781 237.078125 -84.59375 C 237.078125 -59.6875 229.3125 -39.46875 213.78125 -23.9375 C 198.257812 -8.414062 176.878906 0.734375 149.640625 3.515625 L 149.640625 47.234375 L 114.703125 47.234375 L 114.703125 3.734375 C 84.671875 0.515625 61.414062 -10.140625 44.9375 -28.234375 C 28.457031 -46.328125 20.21875 -70.390625 20.21875 -100.421875 L 83.71875 -100.421875 C 83.71875 -82.984375 87.851562 -69.613281 96.125 -60.3125 C 104.40625 -51.007812 116.3125 -46.359375 131.84375 -46.359375 C 144.726562 -46.359375 154.90625 -49.765625 162.375 -56.578125 C 169.84375 -63.390625 173.578125 -72.582031 173.578125 -84.15625 Z M 173.578125 -84.15625 "/></g></g></g></svg>